<?xml version="1.0" encoding="UTF-8" standalone="no"?>
<svg width="1.2em"
  height="1.2em"
  viewBox="0 0 24 24"
  version="1.1"
  inkscape:version="1.3.2 (091e20ef0f, 2023-11-25, custom)"
  sodipodi:docname="ao3.svg"
  xml:space="preserve"
  id="svg1"
  xmlns:inkscape="http://www.inkscape.org/namespaces/inkscape"
  xmlns:sodipodi="http://sodipodi.sourceforge.net/DTD/sodipodi-0.dtd"
  xmlns="http://www.w3.org/2000/svg"
  xmlns:svg="http://www.w3.org/2000/svg">
  <defs id="defs1104" />
  <sodipodi:namedview id="base"
    pagecolor="#ffffff"
    bordercolor="#666666"
    borderopacity="1.0"
    inkscape:pageopacity="0.0"
    inkscape:pageshadow="2"
    inkscape:zoom="19.360333"
    inkscape:cx="2.6342522"
    inkscape:cy="9.6072728"
    inkscape:document-units="mm"
    inkscape:current-layer="g1"
    inkscape:document-rotation="0"
    showgrid="false"
    units="px"
    inkscape:window-width="1920"
    inkscape:window-height="1027"
    inkscape:window-x="0"
    inkscape:window-y="30"
    inkscape:window-maximized="1"
    inkscape:showpageshadow="2"
    inkscape:pagecheckerboard="0"
    inkscape:deskcolor="#d1d1d1" />
  <g inkscape:label="Layer 1"
    inkscape:groupmode="layer"
    fill="currentColor"
    id="g1">
    <path inkscape:label="AO3 base"
      id="ao3-base"
      d="m 23.020724,6.3190483 c 0.283532,-0.1307816 0.695847,-0.4113181 0.835616,-0.245591 0.21065,0.2505831 -0.458241,0.4742141 -0.746763,0.6629012 -0.916481,0.5990072 -1.728136,1.2249701 -2.472901,2.0456101 -0.957413,1.057248 -1.940784,2.3720694 -2.545781,3.8116824 0.616977,0.03196 3.016002,0.156742 3.594043,1.47855 0.463233,1.060242 -0.386359,2.152432 -1.317816,2.622653 0.661904,0.413315 1.807005,0.943436 1.742113,1.894859 -0.157738,2.339124 -3.689884,2.237292 -5.169432,0.69385 -0.243595,-0.288519 -0.357408,-0.481202 -0.249587,-0.577043 0.15075,-0.133778 0.32546,0.18569 0.674881,0.475212 0.224627,0.18669 0.376377,0.250583 0.571054,0.353412 1.298847,0.681871 3.333475,0.402334 3.472245,-0.790689 0.06389,-0.553083 -0.662901,-0.95342 -1.214986,-1.202008 -0.497176,-0.223629 -1.511495,-0.385361 -1.491528,-0.950424 0.01997,-0.553084 0.523133,-0.449256 1.028296,-0.648925 0.54909,-0.216641 1.002339,-0.899509 1.00134,-1.114153 -0.005,-0.903503 -2.058588,-0.886531 -3.21567,-0.918478 -0.274545,0.604997 -0.47022,1.223971 -0.690855,2.154429 -0.13877,0.582036 -0.15075,1.893861 -0.746762,2.025643 -0.735781,0.163728 -1.012322,-0.476211 -1.452592,-0.98936 -0.593018,-0.688859 -1.433625,-1.634292 -1.938787,-2.219322 -3.027982,1.000342 -5.3830787,2.08754 -8.2423399,3.705858 -1.3088308,0.740772 -2.0595865,1.587369 -2.540789,1.351759 -0.3953447,-0.193679 -0.338439,-0.631952 -0.1467567,-0.885532 0.3923497,-0.520138 0.9254661,-1.222973 1.3936901,-1.884876 0.5990072,-0.847595 1.0522563,-1.664242 1.3707281,-2.440954 0.6908551,-1.685207 1.2279648,-4.71219 1.4725597,-5.8493054 0.087853,-0.411319 0.3084878,-0.347424 0.3214679,-0.147756 0.026941,0.418307 -0.236607,2.0436134 -0.2895196,2.3790574 -0.4352799,2.776399 -0.770724,4.402703 -2.0056772,6.338495 C 6.2125818,16.09285 8.8172647,14.434598 11.599654,13.500147 8.7673477,10.245541 5.7733097,7.1646469 1.6092113,5.2228651 0.97126858,4.8604656 -0.06401556,4.7825947 -0.06401556,4.5389985 c 0,-0.2705513 0.77970771,-0.059901 1.04127424,0.00698 2.37905692,0.5950219 4.80902952,2.1374652 6.59007782,3.4383091 2.1414506,1.564408 4.7062005,3.9604374 5.6696035,5.0725934 0.655913,-0.225626 2.282217,-0.456244 3.689884,-0.495179 0.750756,-1.577385 2.545781,-4.0113514 4.780078,-5.4329955 0.412317,-0.2625648 0.840607,-0.5930172 1.313822,-0.8096582 z m -8.57978,8.0576467 c 0.422301,0.427291 0.740773,0.932454 1.108164,1.395686 0.17371,-0.589024 0.40433,-1.213988 0.641936,-1.755091 -0.617976,0.08187 -1.27888,0.202663 -1.7501,0.359405 z"
      style="stroke-width:0.998344" />
    <ellipse style="fill:none;stroke:currentColor;stroke-width:0.998344"
      id="path1"
      cx="14.353453"
      cy="7.4384475"
      rx="4.0761666"
      ry="3.6313901"
      inkscape:label="AO3 Head" />
  </g>
</svg>
