<?xml version="1.0" encoding="UTF-8" standalone="no"?>
<svg
   xmlns:dc="http://purl.org/dc/elements/1.1/"
   xmlns:cc="http://creativecommons.org/ns#"
   xmlns:rdf="http://www.w3.org/1999/02/22-rdf-syntax-ns#"
   xmlns:svg="http://www.w3.org/2000/svg"
   xmlns="http://www.w3.org/2000/svg"
   xmlns:sodipodi="http://sodipodi.sourceforge.net/DTD/sodipodi-0.dtd"
   xmlns:inkscape="http://www.inkscape.org/namespaces/inkscape"
   width="24"
   height="24"
   viewBox="0 0 24 24"
   version="1.1"
   id="ao3e-logo"
   inkscape:version="1.0 (4035a4fb49, 2020-05-01)"
   sodipodi:docname="logo.svg"
   color="#970000">
  <defs
     id="defs1104" />
  <sodipodi:namedview
     id="base"
     pagecolor="#ffffff"
     bordercolor="#666666"
     borderopacity="1.0"
     inkscape:pageopacity="0.0"
     inkscape:pageshadow="2"
     inkscape:zoom="19.360333"
     inkscape:cx="2.6000195"
     inkscape:cy="9.4913886"
     inkscape:document-units="mm"
     inkscape:current-layer="layer1"
     inkscape:document-rotation="0"
     showgrid="false"
     units="px"
     inkscape:window-width="1916"
     inkscape:window-height="1033"
     inkscape:window-x="0"
     inkscape:window-y="45"
     inkscape:window-maximized="1" />
  <metadata
     id="metadata151">
    <rdf:RDF>
      <cc:Work
         rdf:about="">
        <dc:format>image/svg+xml</dc:format>
        <dc:type
           rdf:resource="http://purl.org/dc/dcmitype/StillImage" />
        <dc:title />
      </cc:Work>
    </rdf:RDF>
  </metadata>
  <g
     inkscape:label="Layer 1"
     inkscape:groupmode="layer"
     id="ao3e-logo-main"
     fill="currentColor">
    <path
       inkscape:label="AO3 base"
       id="ao3-base"
       d="m 23.000374,8.6620077 c 0.283532,-0.1307816 0.695847,-0.4113181 0.835616,-0.245591 0.21065,0.2505831 -0.458241,0.4742141 -0.746763,0.6629012 -0.916481,0.5990072 -1.728136,1.2249701 -2.472901,2.0456101 -0.957413,1.057248 -1.940784,2.372069 -2.545781,3.811682 0.616977,0.03196 3.016002,0.156742 3.594043,1.47855 0.463233,1.060242 -0.386359,2.152432 -1.317816,2.622653 0.661904,0.413315 1.807005,0.943436 1.742113,1.894859 -0.157738,2.339124 -3.689884,2.237292 -5.169432,0.69385 -0.243595,-0.288519 -0.357408,-0.481202 -0.249587,-0.577043 0.15075,-0.133778 0.32546,0.18569 0.674881,0.475212 0.224627,0.18669 0.376377,0.250583 0.571054,0.353412 1.298847,0.681871 3.333475,0.402334 3.472245,-0.790689 0.06389,-0.553083 -0.662901,-0.95342 -1.214986,-1.202008 -0.497176,-0.223629 -1.511495,-0.385361 -1.491528,-0.950424 0.01997,-0.553084 0.523133,-0.449256 1.028296,-0.648925 0.54909,-0.216641 1.002339,-0.899509 1.00134,-1.114153 -0.005,-0.903503 -2.058588,-0.886531 -3.21567,-0.918478 -0.274545,0.604997 -0.47022,1.223971 -0.690855,2.154429 -0.13877,0.582036 -0.15075,1.893861 -0.746762,2.025643 -0.735781,0.163728 -1.012322,-0.476211 -1.452592,-0.98936 -0.593018,-0.688859 -1.433625,-1.634292 -1.938787,-2.219322 -3.027982,1.000342 -5.3830787,2.08754 -8.2423399,3.705858 -1.3088308,0.740772 -2.0595865,1.587369 -2.540789,1.351759 -0.3953447,-0.193679 -0.338439,-0.631952 -0.1467567,-0.885532 0.3923497,-0.520138 0.9254661,-1.222973 1.3936901,-1.884876 0.5990072,-0.847595 1.0522563,-1.664242 1.3707281,-2.440954 0.6908551,-1.685207 1.2279648,-4.71219 1.4725597,-5.849305 0.087853,-0.411319 0.3084878,-0.347424 0.3214679,-0.147756 0.026941,0.418307 -0.236607,2.043613 -0.2895196,2.379057 C 5.5702627,16.229466 5.2348186,17.85577 3.9998654,19.791562 6.1922318,18.435809 8.7969147,16.777557 11.579304,15.843106 8.7469977,12.5885 5.7529597,9.5076063 1.5888613,7.5658245 0.95091862,7.203425 -0.08436552,7.1255541 -0.08436552,6.8819579 c 0,-0.2705513 0.77970771,-0.059901 1.04127424,0.00698 2.37905688,0.5950219 4.80902948,2.1374652 6.59007778,3.4383091 2.1414506,1.564408 4.7062005,3.960437 5.6696035,5.072593 0.655913,-0.225626 2.282217,-0.456244 3.689884,-0.495179 0.750756,-1.577385 2.545781,-4.011351 4.780078,-5.4329951 0.412317,-0.2625648 0.840607,-0.5930172 1.313822,-0.8096582 z m -8.57978,8.0576463 c 0.422301,0.427291 0.740773,0.932454 1.108164,1.395686 0.17371,-0.589024 0.40433,-1.213988 0.641936,-1.755091 -0.617976,0.08187 -1.27888,0.202663 -1.7501,0.359405 z"
       style="stroke-width:0.998344" />
    <path
       inkscape:label="Gear"
       id="gear"
       d="m 19.196049,5.5315912 h -0.437361 c -0.356791,0 -0.656038,-0.3078767 -0.656038,-0.6733029 0,-0.1841449 0.07768,-0.3510411 0.215795,-0.4747676 l 0.281985,-0.276227 c 0.279105,-0.276227 0.279105,-0.727973 0,-1.0042019 L 17.958774,2.4671973 c -0.126618,-0.1266165 -0.313634,-0.201403 -0.503539,-0.201403 -0.189906,0 -0.374054,0.074818 -0.50354,0.201403 l -0.270457,0.2704599 c -0.129486,0.14387 -0.302128,0.2215561 -0.489153,0.2215561 -0.368306,0 -0.676181,-0.2992474 -0.676181,-0.6531626 V 1.8658116 c 0,-0.3884466 -0.313634,-0.7222172 -0.704956,-0.7222172 h -0.874717 c -0.391322,0 -0.702076,0.3308975 -0.702076,0.7222172 v 0.4373609 c 0,0.3539131 -0.307877,0.653162 -0.676184,0.653162 -0.184148,0 -0.353912,-0.077686 -0.47764,-0.2129264 L 11.801225,2.4671815 C 11.674611,2.3376973 11.487591,2.2657784 11.297686,2.2657784 c -0.18991,0 -0.374055,0.074818 -0.503539,0.2014031 l -0.647408,0.6330216 c -0.2762268,0.2762266 -0.2762268,0.7279731 0,1.001321 l 0.270458,0.2704618 c 0.143871,0.1294854 0.224423,0.3021194 0.224423,0.4862752 0,0.3683053 -0.299241,0.6733029 -0.6560378,0.6733029 H 9.548224 c -0.3941981,0 -0.7250955,0.3078768 -0.7250955,0.699202 v 0.4373554 0.4373609 c 0,0.3884481 0.3308983,0.6991992 0.7250955,0.6991992 h 0.4373608 c 0.3567902,0 0.6560382,0.3078767 0.6560382,0.6733053 0,0.1841447 -0.08058,0.3567906 -0.224423,0.4862751 l -0.270458,0.267591 c -0.2762271,0.276227 -0.2762271,0.7279738 0,1.0013211 l 0.641653,0.638774 c 0.126615,0.129486 0.313634,0.20143 0.50354,0.20143 0.18991,0 0.374062,-0.07482 0.503539,-0.20143 l 0.279106,-0.276226 c 0.120853,-0.135247 0.293491,-0.212928 0.477646,-0.212928 0.368305,0 0.67618,0.299242 0.67618,0.653163 v 0.437355 c 0,0.388449 0.310755,0.722221 0.704955,0.722221 h 0.874718 c 0.391327,0 0.702077,-0.330898 0.702077,-0.722221 v -0.437323 c 0,-0.353919 0.307877,-0.653162 0.676184,-0.653162 0.184148,0 0.35679,0.08058 0.489147,0.221555 l 0.270458,0.270462 c 0.129485,0.126615 0.313634,0.201429 0.50354,0.201429 0.189909,0 0.374054,-0.07482 0.503539,-0.201429 l 0.64165,-0.638777 c 0.276227,-0.2762262 0.276227,-0.7279726 0,-1.0041988 L 18.31269,8.9556412 C 18.174581,8.8319211 18.096896,8.66215 18.096896,8.4808792 c 0,-0.3683053 0.299248,-0.6733057 0.65604,-0.6733057 h 0.437361 c 0.391319,0 0.670424,-0.3078767 0.670424,-0.6991988 V 6.6681355 6.2307797 c 0.0057,-0.3913248 -0.273347,-0.6992019 -0.66467,-0.6992019 z m -2.523448,1.1365597 v 0 c 0,1.2689189 -1.027221,2.3018927 -2.301892,2.3018927 -1.274676,0 -2.301894,-1.0329738 -2.301894,-2.3018927 v 0 0 c 0,-1.2689167 1.027218,-2.3018932 2.301894,-2.3018932 1.274671,0 2.301892,1.0329765 2.301892,2.3018932 z"
       style="stroke-width:0.0287735" />
  </g>
</svg>
